<mxfile>
    <diagram id="TQFV_ZYHpwarfMyc25AP" name="Page-1">
        <mxGraphModel dx="548" dy="860" grid="1" gridSize="10" guides="1" tooltips="1" connect="1" arrows="1" fold="1" page="1" pageScale="1" pageWidth="827" pageHeight="1169" math="0" shadow="0">
            <root>
                <mxCell id="0"/>
                <mxCell id="1" parent="0"/>
                <mxCell id="YmfHAs4OdKaFVAlsUWCm-1" value="" style="shape=umlLifeline;participant=umlActor;perimeter=lifelinePerimeter;whiteSpace=wrap;html=1;container=1;collapsible=0;recursiveResize=0;verticalAlign=top;spacingTop=36;outlineConnect=0;size=60;" parent="1" vertex="1">
                    <mxGeometry x="130" y="150" width="30" height="430" as="geometry"/>
                </mxCell>
                <mxCell id="YmfHAs4OdKaFVAlsUWCm-5" value="" style="html=1;points=[];perimeter=orthogonalPerimeter;fillColor=#dae8fc;strokeColor=#6c8ebf;" parent="YmfHAs4OdKaFVAlsUWCm-1" vertex="1">
                    <mxGeometry x="10" y="90" width="10" height="330" as="geometry"/>
                </mxCell>
                <mxCell id="YmfHAs4OdKaFVAlsUWCm-2" value="API" style="shape=umlLifeline;perimeter=lifelinePerimeter;whiteSpace=wrap;html=1;container=1;collapsible=0;recursiveResize=0;outlineConnect=0;fillColor=#dae8fc;strokeColor=#6c8ebf;" parent="1" vertex="1">
                    <mxGeometry x="250" y="160" width="100" height="420" as="geometry"/>
                </mxCell>
                <mxCell id="YmfHAs4OdKaFVAlsUWCm-6" value="" style="html=1;points=[];perimeter=orthogonalPerimeter;fillColor=#dae8fc;strokeColor=#6c8ebf;" parent="YmfHAs4OdKaFVAlsUWCm-2" vertex="1">
                    <mxGeometry x="45" y="90" width="10" height="320" as="geometry"/>
                </mxCell>
                <mxCell id="YmfHAs4OdKaFVAlsUWCm-3" value="&lt;div&gt;Servicio de autenticación&lt;/div&gt;" style="shape=umlLifeline;perimeter=lifelinePerimeter;whiteSpace=wrap;html=1;container=1;collapsible=0;recursiveResize=0;outlineConnect=0;fillColor=#dae8fc;strokeColor=#6c8ebf;" parent="1" vertex="1">
                    <mxGeometry x="440" y="160" width="100" height="420" as="geometry"/>
                </mxCell>
                <mxCell id="YmfHAs4OdKaFVAlsUWCm-8" value="" style="html=1;points=[];perimeter=orthogonalPerimeter;fillColor=#dae8fc;strokeColor=#6c8ebf;" parent="YmfHAs4OdKaFVAlsUWCm-3" vertex="1">
                    <mxGeometry x="45" y="100" width="10" height="280" as="geometry"/>
                </mxCell>
                <mxCell id="YmfHAs4OdKaFVAlsUWCm-12" style="edgeStyle=orthogonalEdgeStyle;rounded=0;orthogonalLoop=1;jettySize=auto;html=1;" parent="YmfHAs4OdKaFVAlsUWCm-3" edge="1">
                    <mxGeometry relative="1" as="geometry">
                        <mxPoint x="45" y="135" as="sourcePoint"/>
                        <mxPoint x="45" y="160" as="targetPoint"/>
                        <Array as="points">
                            <mxPoint x="10" y="135"/>
                            <mxPoint x="10" y="160"/>
                            <mxPoint x="45" y="160"/>
                        </Array>
                    </mxGeometry>
                </mxCell>
                <mxCell id="YmfHAs4OdKaFVAlsUWCm-23" value="1.2: validarToken(token)" style="edgeLabel;html=1;align=center;verticalAlign=middle;resizable=0;points=[];" parent="YmfHAs4OdKaFVAlsUWCm-12" vertex="1" connectable="0">
                    <mxGeometry x="-0.2035" y="1" relative="1" as="geometry">
                        <mxPoint x="-61" y="12" as="offset"/>
                    </mxGeometry>
                </mxCell>
                <mxCell id="YmfHAs4OdKaFVAlsUWCm-18" style="edgeStyle=orthogonalEdgeStyle;rounded=0;orthogonalLoop=1;jettySize=auto;html=1;" parent="YmfHAs4OdKaFVAlsUWCm-3" edge="1">
                    <mxGeometry relative="1" as="geometry">
                        <mxPoint x="45" y="230" as="sourcePoint"/>
                        <mxPoint x="45" y="260" as="targetPoint"/>
                        <Array as="points">
                            <mxPoint x="45" y="230"/>
                            <mxPoint x="10" y="230"/>
                            <mxPoint x="10" y="260"/>
                            <mxPoint x="45" y="260"/>
                        </Array>
                    </mxGeometry>
                </mxCell>
                <mxCell id="YmfHAs4OdKaFVAlsUWCm-26" value="1.5: crearTokenAutenticacion()" style="edgeLabel;html=1;align=center;verticalAlign=middle;resizable=0;points=[];" parent="YmfHAs4OdKaFVAlsUWCm-18" vertex="1" connectable="0">
                    <mxGeometry x="-0.3692" y="1" relative="1" as="geometry">
                        <mxPoint x="-63" y="-11" as="offset"/>
                    </mxGeometry>
                </mxCell>
                <mxCell id="YmfHAs4OdKaFVAlsUWCm-4" value="ORM" style="shape=umlLifeline;perimeter=lifelinePerimeter;whiteSpace=wrap;html=1;container=1;collapsible=0;recursiveResize=0;outlineConnect=0;fillColor=#dae8fc;strokeColor=#6c8ebf;" parent="1" vertex="1">
                    <mxGeometry x="640" y="160" width="100" height="420" as="geometry"/>
                </mxCell>
                <mxCell id="YmfHAs4OdKaFVAlsUWCm-11" value="" style="html=1;points=[];perimeter=orthogonalPerimeter;fillColor=#dae8fc;strokeColor=#6c8ebf;" parent="YmfHAs4OdKaFVAlsUWCm-4" vertex="1">
                    <mxGeometry x="45" y="160" width="10" height="50" as="geometry"/>
                </mxCell>
                <mxCell id="YmfHAs4OdKaFVAlsUWCm-7" style="edgeStyle=orthogonalEdgeStyle;rounded=0;orthogonalLoop=1;jettySize=auto;html=1;" parent="1" source="YmfHAs4OdKaFVAlsUWCm-5" edge="1">
                    <mxGeometry relative="1" as="geometry">
                        <mxPoint x="295" y="260" as="targetPoint"/>
                        <Array as="points">
                            <mxPoint x="295" y="260"/>
                        </Array>
                    </mxGeometry>
                </mxCell>
                <mxCell id="YmfHAs4OdKaFVAlsUWCm-21" value="1: refresh(token de refresh)" style="edgeLabel;html=1;align=center;verticalAlign=middle;resizable=0;points=[];" parent="YmfHAs4OdKaFVAlsUWCm-7" vertex="1" connectable="0">
                    <mxGeometry x="0.2371" y="-2" relative="1" as="geometry">
                        <mxPoint x="-20" y="-12" as="offset"/>
                    </mxGeometry>
                </mxCell>
                <mxCell id="YmfHAs4OdKaFVAlsUWCm-9" style="edgeStyle=orthogonalEdgeStyle;rounded=0;orthogonalLoop=1;jettySize=auto;html=1;" parent="1" source="YmfHAs4OdKaFVAlsUWCm-6" edge="1">
                    <mxGeometry relative="1" as="geometry">
                        <mxPoint x="485" y="276" as="targetPoint"/>
                        <Array as="points">
                            <mxPoint x="380" y="276"/>
                            <mxPoint x="380" y="276"/>
                        </Array>
                    </mxGeometry>
                </mxCell>
                <mxCell id="YmfHAs4OdKaFVAlsUWCm-22" value="1.1: solicitudRefresh(token)" style="edgeLabel;html=1;align=center;verticalAlign=middle;resizable=0;points=[];" parent="YmfHAs4OdKaFVAlsUWCm-9" vertex="1" connectable="0">
                    <mxGeometry x="-0.3157" y="-3" relative="1" as="geometry">
                        <mxPoint x="24" y="-19" as="offset"/>
                    </mxGeometry>
                </mxCell>
                <mxCell id="YmfHAs4OdKaFVAlsUWCm-14" style="edgeStyle=orthogonalEdgeStyle;rounded=0;orthogonalLoop=1;jettySize=auto;html=1;" parent="1" source="YmfHAs4OdKaFVAlsUWCm-8" edge="1">
                    <mxGeometry relative="1" as="geometry">
                        <mxPoint x="684" y="335" as="targetPoint"/>
                        <Array as="points">
                            <mxPoint x="684" y="335"/>
                        </Array>
                    </mxGeometry>
                </mxCell>
                <mxCell id="YmfHAs4OdKaFVAlsUWCm-24" value="1.3: comprobarToken(token)" style="edgeLabel;html=1;align=center;verticalAlign=middle;resizable=0;points=[];" parent="YmfHAs4OdKaFVAlsUWCm-14" vertex="1" connectable="0">
                    <mxGeometry x="-0.7826" y="-2" relative="1" as="geometry">
                        <mxPoint x="74" y="-17" as="offset"/>
                    </mxGeometry>
                </mxCell>
                <mxCell id="YmfHAs4OdKaFVAlsUWCm-15" style="edgeStyle=orthogonalEdgeStyle;rounded=0;orthogonalLoop=1;jettySize=auto;html=1;" parent="1" source="YmfHAs4OdKaFVAlsUWCm-11" edge="1">
                    <mxGeometry relative="1" as="geometry">
                        <mxPoint x="496" y="360" as="targetPoint"/>
                        <Array as="points">
                            <mxPoint x="496" y="360"/>
                        </Array>
                    </mxGeometry>
                </mxCell>
                <mxCell id="YmfHAs4OdKaFVAlsUWCm-25" value="1.4: datos de usuario" style="edgeLabel;html=1;align=center;verticalAlign=middle;resizable=0;points=[];" parent="YmfHAs4OdKaFVAlsUWCm-15" vertex="1" connectable="0">
                    <mxGeometry x="0.2239" y="-2" relative="1" as="geometry">
                        <mxPoint x="21" y="-8" as="offset"/>
                    </mxGeometry>
                </mxCell>
                <mxCell id="YmfHAs4OdKaFVAlsUWCm-19" style="edgeStyle=orthogonalEdgeStyle;rounded=0;orthogonalLoop=1;jettySize=auto;html=1;" parent="1" edge="1">
                    <mxGeometry relative="1" as="geometry">
                        <mxPoint x="485" y="458" as="sourcePoint"/>
                        <mxPoint x="306" y="458" as="targetPoint"/>
                        <Array as="points">
                            <mxPoint x="306" y="458"/>
                        </Array>
                    </mxGeometry>
                </mxCell>
                <mxCell id="YmfHAs4OdKaFVAlsUWCm-27" value="1.6: token de autenticación" style="edgeLabel;html=1;align=center;verticalAlign=middle;resizable=0;points=[];" parent="YmfHAs4OdKaFVAlsUWCm-19" vertex="1" connectable="0">
                    <mxGeometry x="-0.3782" y="3" relative="1" as="geometry">
                        <mxPoint x="-29" y="-11" as="offset"/>
                    </mxGeometry>
                </mxCell>
                <mxCell id="YmfHAs4OdKaFVAlsUWCm-20" style="edgeStyle=orthogonalEdgeStyle;rounded=0;orthogonalLoop=1;jettySize=auto;html=1;" parent="1" source="YmfHAs4OdKaFVAlsUWCm-6" edge="1">
                    <mxGeometry relative="1" as="geometry">
                        <mxPoint x="150" y="477" as="targetPoint"/>
                        <Array as="points">
                            <mxPoint x="260" y="477"/>
                            <mxPoint x="260" y="477"/>
                        </Array>
                    </mxGeometry>
                </mxCell>
                <mxCell id="YmfHAs4OdKaFVAlsUWCm-28" value="1.7: token de autenticación" style="edgeLabel;html=1;align=center;verticalAlign=middle;resizable=0;points=[];" parent="YmfHAs4OdKaFVAlsUWCm-20" vertex="1" connectable="0">
                    <mxGeometry x="-0.142" relative="1" as="geometry">
                        <mxPoint x="-13" y="-17" as="offset"/>
                    </mxGeometry>
                </mxCell>
                <mxCell id="YmfHAs4OdKaFVAlsUWCm-29" style="edgeStyle=orthogonalEdgeStyle;rounded=0;orthogonalLoop=1;jettySize=auto;html=1;" parent="1" source="YmfHAs4OdKaFVAlsUWCm-8" edge="1">
                    <mxGeometry relative="1" as="geometry">
                        <mxPoint x="307" y="520" as="targetPoint"/>
                        <Array as="points">
                            <mxPoint x="307" y="520"/>
                        </Array>
                    </mxGeometry>
                </mxCell>
                <mxCell id="YmfHAs4OdKaFVAlsUWCm-30" value="1.8: error" style="edgeLabel;html=1;align=center;verticalAlign=middle;resizable=0;points=[];" parent="YmfHAs4OdKaFVAlsUWCm-29" vertex="1" connectable="0">
                    <mxGeometry x="0.346" y="1" relative="1" as="geometry">
                        <mxPoint x="25" y="-11" as="offset"/>
                    </mxGeometry>
                </mxCell>
                <mxCell id="YmfHAs4OdKaFVAlsUWCm-31" style="edgeStyle=orthogonalEdgeStyle;rounded=0;orthogonalLoop=1;jettySize=auto;html=1;" parent="1" source="YmfHAs4OdKaFVAlsUWCm-6" edge="1">
                    <mxGeometry relative="1" as="geometry">
                        <mxPoint x="151" y="540" as="targetPoint"/>
                        <Array as="points">
                            <mxPoint x="151" y="540"/>
                        </Array>
                    </mxGeometry>
                </mxCell>
                <mxCell id="YmfHAs4OdKaFVAlsUWCm-32" value="1.9: error" style="edgeLabel;html=1;align=center;verticalAlign=middle;resizable=0;points=[];" parent="YmfHAs4OdKaFVAlsUWCm-31" vertex="1" connectable="0">
                    <mxGeometry x="-0.2395" y="-1" relative="1" as="geometry">
                        <mxPoint x="-20" y="-9" as="offset"/>
                    </mxGeometry>
                </mxCell>
                <mxCell id="YmfHAs4OdKaFVAlsUWCm-33" value="&lt;div&gt;alt&lt;/div&gt;" style="shape=umlFrame;whiteSpace=wrap;html=1;width=40;height=20;" parent="1" vertex="1">
                    <mxGeometry x="130" y="370" width="390" height="190" as="geometry"/>
                </mxCell>
                <mxCell id="YmfHAs4OdKaFVAlsUWCm-35" value="" style="endArrow=none;dashed=1;html=1;entryX=-0.001;entryY=0.68;entryDx=0;entryDy=0;entryPerimeter=0;exitX=1.001;exitY=0.678;exitDx=0;exitDy=0;exitPerimeter=0;strokeWidth=2;" parent="1" source="YmfHAs4OdKaFVAlsUWCm-33" target="YmfHAs4OdKaFVAlsUWCm-33" edge="1">
                    <mxGeometry width="50" height="50" relative="1" as="geometry">
                        <mxPoint x="50" y="510" as="sourcePoint"/>
                        <mxPoint x="168" y="620" as="targetPoint"/>
                    </mxGeometry>
                </mxCell>
                <mxCell id="YmfHAs4OdKaFVAlsUWCm-36" value="[existe el token en el modelo]" style="text;html=1;strokeColor=none;fillColor=none;align=center;verticalAlign=middle;whiteSpace=wrap;rounded=0;" parent="1" vertex="1">
                    <mxGeometry x="150" y="390" width="140" height="20" as="geometry"/>
                </mxCell>
            </root>
        </mxGraphModel>
    </diagram>
</mxfile>